#!OML:ASF X:\für Bonn\!DataBase\2005_08_12_Daniel\c3d\Daniel.ASF
:FULLY-SPECIFIED
:DEGREES
109
root -6.33912 18.3955 -5.4108 -178.416 -46.9298 175.743
lowerback 9.5047 1.09373 -1.46548
upperback 1.78424 1.0698 -2.56987
thorax -3.45321 0.478052 -1.96984
lowerneck -7.52133 0.288223 -5.26206
upperneck 8.17082 0.906294 0.303808
head 4.00957 0.270019 1.09091
rclavicle -5.81445e-015 -1.55052e-014
rhumerus -61.0438 21.8264 -110.454
rradius 98.8592
rwrist -6.49646
rhand -13.1165 25.3317
rfingers 7.12502
rthumb 12.9809 -4.24445
lclavicle -5.81445e-015 -1.55052e-014
lhumerus -73.7976 -4.06786 92.7345
lradius 109.625
lwrist 14.9408
lhand -4.23262 -13.3254
lfingers 7.12502
lthumb 21.5306 15.4979
rfemur 15.8339 -2.17312 19.6702
rtibia 42.5399
rfoot 10.0552 -10.6536
rtoes -4.78362
lfemur -21.9897 -0.47972 -26.6022
ltibia 29.2831
lfoot -5.58478 2.57098
ltoes -11.2871
110
root -6.59224 18.3066 -5.67386 -178.729 -47.0885 175.747
lowerback 9.86353 0.952758 -1.65443
upperback 1.91266 0.844471 -2.5679
thorax -3.52692 0.363559 -1.8386
lowerneck -7.42772 0.343552 -5.09036
upperneck 7.80577 0.9739 0.0751491
head 3.85862 0.306902 0.983121
rclavicle -4.62174e-015 -2.14687e-014
rhumerus -60.6588 21.1892 -110.141
rradius 97.9458
rwrist -6.47485
rhand -13.0993 24.7717
rfingers 7.12502
rthumb 12.9975 -4.80339
lclavicle -4.62174e-015 -2.14687e-014
lhumerus -73.2953 -4.13073 92.4509
lradius 109.477
lwrist 14.7369
lhand -4.63338 -13.1708
lfingers 7.12502
lthumb 21.1456 15.696
rfemur 14.9449 -3.02083 19.0455
rtibia 45.763
rfoot 9.67491 -9.7784
rtoes -6.55029
lfemur -21.7621 -0.0467711 -26.8706
ltibia 30.16
lfoot -5.84368 2.65728
ltoes -10.3779
111
root -6.84167 18.2068 -5.93388 -178.992 -47.2315 175.652
lowerback 10.2398 0.805405 -1.92415
upperback 2.07866 0.597413 -2.57774
thorax -3.57048 0.237519 -1.66918
lowerneck -7.34306 0.414631 -4.96056
upperneck 7.36779 1.06365 -0.125458
head 3.68453 0.3566 0.893591
rclavicle 6.68413e-014 8.74653e-015
rhumerus -60.1372 20.4871 -109.735
rradius 96.8863
rwrist -6.3761
rhand -13.1695 24.258
rfingers 7.12502
rthumb 12.9298 -5.32139
lclavicle 6.68413e-014 8.74653e-015
lhumerus -72.6464 -4.23758 92.1869
lradius 109.264
lwrist 14.6509
lhand -5.1121 -12.8284
lfingers 7.12502
lthumb 20.6857 16.0892
rfemur 13.9396 -3.69533 18.4292
rtibia 49.1586
rfoot 9.19353 -9.02335
rtoes -8.1572
lfemur -21.6456 0.58573 -27.2268
ltibia 31.5693
lfoot -6.09413 2.1961
ltoes -9.00587
112
root -7.08651 18.0927 -6.18923 -179.239 -47.361 175.458
lowerback 10.6885 0.669705 -2.24129
upperback 2.27484 0.349962 -2.63194
thorax -3.62 0.109259 -1.51776
lowerneck -7.25518 0.478444 -4.78337
upperneck 6.87575 1.13616 -0.319148
head 3.49307 0.400912 0.797179
rclavicle 4.11484e-014 -1.35174e-014
rhumerus -59.5134 19.674 -109.292
rradius 95.6906
rwrist -6.16155
rhand -13.4691 23.8732
rfingers 7.12502
rthumb 12.641 -5.72427
lclavicle 4.11484e-014 -1.35174e-014
lhumerus -71.8666 -4.47577 91.9036
lradius 108.961
lwrist 14.6965
lhand -5.61572 -12.4132
lfingers 7.12502
lthumb 20.2017 16.5563
rfemur 12.8442 -4.23489 17.8021
rtibia 52.7245
rfoot 8.71137 -8.29323
rtoes -9.51105
lfemur -21.537 1.34974 -27.6321
ltibia 33.3478
lfoot -6.65596 1.45819
ltoes -6.9554
